:SAMPLES-PER-SECOND 30
:FULLY-SPECIFIED
:DEGREES
256
root  34.91173992 36.57584603 -14.08670981 10.84516144 -1.913145304 4.320806026
lowerback  -8.039540291 0.8734309673 0.7069937587
upperback  -4.358290195 1.706329942 -4.68832016
thorax  0.1525139958 1.030799985 -5.124300003
lowerneck  -11.82250023 -8.937879562 -4.866250038
upperneck  12.22039986 -12.74330139 7.896269798
head  6.472970009 -5.947084904 2.058859825
lclavicle  0 -4.497500157e-015 -2.743230041e-014
lhumerus  -48.30649948 29.99230003 60.87049866
lradius  0.008410145529 -6.507048965e-006 28.54679871
lwrist  3.192251654e-007 -3.790274832e-007 -30.62849998
lhand  -0 -36.95510101 -10.36509991
lfingers  90 7.125020027 -90
lthumb  94.77577038 -25.20481961 101.0996093
rclavicle  0 -4.497500157e-015 -2.743230041e-014
rhumerus  44.07149887 -23.60980034 -44.13140106
rradius  -5.16745672e-007 2.214343908e-008 53.34809875
rwrist  0.0006954420824 -0.004670973402 -172.2929993
rhand  -1.768241542e-031 3.154350042 -5.80095005
rfingers  -90 -7.125020027 -90
rthumb  -84.50091829 -9.965484567 -60.9121963
rfemur  -11.93651867 13.79174137 11.84839535
rtibia  -0.5219159722 -1.504979849 18.65864754
rfoot  0.8875094056 -21.65490723 -36.41176224
rtoes  3.773962694 19.65503736 -101.0955726
lfemur  -4.120513439 -17.02420235 -23.30115509
ltibia  7.55035162 -0.009322853759 5.859568119
lfoot  0.5472125411 -21.71028137 34.95532227
ltoes  -8.668102293 -18.09370584 -116.1452316
257
root  34.90900355 36.57603527 -14.08482499 10.83636475 -1.909287572 4.303949833
lowerback  -8.027291298 0.8496890664 0.6776266694
upperback  -4.355239868 1.675029993 -4.672029972
thorax  0.1449030042 1.015059948 -5.093229771
lowerneck  -11.81849957 -8.905639648 -4.902289867
upperneck  12.23840046 -12.69489956 7.900990009
head  6.48570013 -5.92538023 2.063999891
lclavicle  0 -4.497500157e-015 -2.743230041e-014
lhumerus  -48.30759811 29.96310043 60.9394989
lradius  0.007396618836 -6.507048965e-006 28.58340263
lwrist  3.192251654e-007 -3.790274832e-007 -30.56100082
lhand  -4.4203722e-031 -36.98149872 -10.36349964
lfingers  90 7.125020027 -90
lthumb  94.78764474 -25.20230088 101.1276582
rclavicle  0 -4.497500157e-015 -2.743230041e-014
rhumerus  43.13830185 -23.62619972 -43.70149994
rradius  -5.16745672e-007 2.214343908e-008 54.5564003
rwrist  0.0006954420824 -0.004670973402 -173.1679993
rhand  -1.768210677e-031 3.136149883 -5.818649769
rfingers  -90 -7.125020027 -90
rthumb  -84.51415483 -9.949050752 -60.93144592
rfemur  -11.89218807 13.78385353 11.86693668
rtibia  -0.5026519299 -1.510820985 18.59955406
rfoot  0.9224783182 -21.66780281 -36.38321304
rtoes  3.792956318 19.65152032 -101.1520462
lfemur  -4.060291767 -17.05389404 -23.298563
ltibia  7.581796169 -0.006373432931 5.788714886
lfoot  0.5450392365 -21.68979073 34.99371338
ltoes  -8.645420154 -18.10427197 -116.0722188
258
root  34.90639334 36.57547658 -14.08311589 10.81630707 -1.908415079 4.297279835
lowerback  -8.005149841 0.8370399475 0.6664255857
upperback  -4.368969917 1.659150004 -4.669829845
thorax  0.1166429967 1.007200003 -5.086569786
lowerneck  -11.82250023 -8.887339592 -4.879489899
upperneck  12.28310013 -12.66870022 7.849520206
head  6.49382019 -5.914040089 2.046610117
lclavicle  0 -4.497500157e-015 -2.743230041e-014
lhumerus  -48.27859879 29.89699745 60.98139954
lradius  0.006252196617 -6.507048965e-006 28.5691452
lwrist  3.192251654e-007 -3.790274832e-007 -30.50130272
lhand  -0 -37.03469849 -10.45030022
lfingers  90 7.125020027 -90
lthumb  94.83085653 -25.28561151 101.1923245
rclavicle  0 -4.497500157e-015 -2.743230041e-014
rhumerus  42.13199997 -23.6189003 -43.18130112
rradius  -5.16745672e-007 2.214343908e-008 55.75859833
rwrist  0.0006954420824 -0.004670973402 -173.9980011
rhand  -1.768362706e-031 3.22480011 -5.970089912
rfingers  -90 -7.125020027 -90
rthumb  -84.56717232 -9.821213906 -60.85758115
rfemur  -11.86744404 13.85528183 11.8830061
rtibia  -0.5020220876 -1.469995379 18.59566307
rfoot  0.925366044 -21.59218597 -36.42941666
rtoes  3.798479056 19.65049422 -101.1684687
lfemur  -3.847278118 -17.05683517 -23.37471581
ltibia  7.718405724 -0.03194281086 5.479539394
lfoot  0.5055064559 -21.52204514 34.98868561
ltoes  -8.65605228 -18.09932348 -116.106438
259
root  34.90472028 36.57507408 -14.08216822 10.80469418 -1.915234447 4.300488472
lowerback  -7.992609501 0.8231970072 0.6616528034
upperback  -4.372690201 1.640149951 -4.662059784
thorax  0.1037869975 0.9974240065 -5.077589989
lowerneck  -11.84469986 -8.814649582 -4.752920151
upperneck  12.32330036 -12.56279945 7.687190056
head  6.484200001 -5.865839958 1.987650037
lclavicle  0 -4.497500157e-015 -2.743230041e-014
lhumerus  -48.24420166 29.80520058 61.05730057
lradius  0.00532641774 -6.507048965e-006 28.56463814
lwrist  3.192251654e-007 -3.790274832e-007 -30.32089996
lhand  -4.422273508e-031 -37.0141983 -10.29049969
lfingers  90 7.125020027 -90
lthumb  94.78717414 -25.12951046 101.1559589
rclavicle  0 -4.497500157e-015 -2.743230041e-014
rhumerus  41.17889786 -23.62849808 -42.76279831
rradius  -5.16745672e-007 2.214343908e-008 56.90530014
rwrist  0.0006954420824 -0.004670973402 -174.6139984
rhand  -1.768379041e-031 3.234179974 -6.052840233
rfingers  -90 -7.125020027 -90
rthumb  -84.60575523 -9.749444963 -60.85531019
rfemur  -11.85354233 13.85988426 11.88486481
rtibia  -0.5038804412 -1.469235063 18.60011101
rfoot  0.9168440104 -21.60115814 -36.43654251
rtoes  3.821813222 19.64614169 -101.2378649
lfemur  -3.642650127 -17.08774757 -23.46057129
ltibia  7.858459949 -0.07324840873 5.162755013
lfoot  0.4614233375 -21.3136692 34.99412155
ltoes  -8.651916086 -18.10124949 -116.0931247
